<svg xmlns="http://www.w3.org/2000/svg" viewBox="0 0 172.0 135.6" width="172.0" height="135.6" role="img" aria-label="Geometry diagram"><polygon points="22.0,94.4 150.0,94.4 108.2,22.0" fill="none" stroke="#1f2937" stroke-width="1.75"/><path d="M 38.0 94.4 A 16.0 16.0 0 0 0 34.3 84.1" fill="none" stroke="#2563eb" stroke-width="1.75"/><text x="50.2" y="84.1" class="diagram-label" fill="#2563eb" font-size="12" text-anchor="middle" dominant-baseline="middle">40°</text><path d="M 142.0 80.5 A 16.0 16.0 0 0 0 134.0 94.4" fill="none" stroke="#2563eb" stroke-width="1.75"/><text x="124.0" y="79.4" class="diagram-label" fill="#2563eb" font-size="12" text-anchor="middle" dominant-baseline="middle">60°</text><path d="M 96.0 32.3 A 16.0 16.0 0 0 0 116.2 35.9" fill="none" stroke="#2563eb" stroke-width="1.75"/><text x="103.0" y="51.5" class="diagram-label" fill="#2563eb" font-size="12" text-anchor="middle" dominant-baseline="middle">80°</text><text x="86.0" y="113.6" class="diagram-label" fill="#374151" font-size="13" text-anchor="middle" dominant-baseline="middle" stroke="#ffffff" stroke-width="3.5" paint-order="stroke fill">5 cm</text><text x="145.7" y="48.6" class="diagram-label" fill="#374151" font-size="13" text-anchor="middle" dominant-baseline="middle" stroke="#ffffff" stroke-width="3.5" paint-order="stroke fill">4 cm</text><text x="52.8" y="43.5" class="diagram-label" fill="#374151" font-size="13" text-anchor="middle" dominant-baseline="middle" stroke="#ffffff" stroke-width="3.5" paint-order="stroke fill">3 cm</text><circle cx="22.0" cy="94.4" r="3" fill="#1f2937"/><text x="12.0" y="103.2" class="diagram-label" fill="#374151" font-size="13" text-anchor="middle" dominant-baseline="middle">A</text><circle cx="150.0" cy="94.4" r="3" fill="#1f2937"/><text x="160.0" y="103.2" class="diagram-label" fill="#374151" font-size="13" text-anchor="middle" dominant-baseline="middle">B</text><circle cx="108.2" cy="22.0" r="3" fill="#1f2937"/><text x="108.2" y="10.8" class="diagram-label" fill="#374151" font-size="13" text-anchor="middle" dominant-baseline="middle">C</text></svg>